<svg width="24" height="24" viewBox="0 0 24 24" fill="none" xmlns="http://www.w3.org/2000/svg">
<circle cx="12" cy="12" r="12" fill="#F1F3F5"/>
<path d="M16.9501 10.5225C17.2201 10.5225 17.4001 10.3425 17.4001 10.0725V9.17253C17.4001 8.99253 17.3101 8.85693 17.1751 8.76753L12.2251 6.06753C12.1583 6.02348 12.0801 6 12.0001 6C11.9201 6 11.8419 6.02348 11.7751 6.06753L6.8251 8.76753C6.75608 8.81 6.69914 8.8695 6.65974 8.94032C6.62034 9.01114 6.5998 9.09089 6.6001 9.17193V10.0719C6.6001 10.3419 6.7801 10.5219 7.0501 10.5219H7.9501V15.4719H7.0501C6.7801 15.4719 6.6001 15.6519 6.6001 15.9219C6.6001 16.1919 6.7801 16.3719 7.0501 16.3719H16.9501C17.2201 16.3719 17.4001 16.1919 17.4001 15.9219C17.4001 15.6519 17.2201 15.4719 16.9501 15.4719H16.0501V10.5219H16.9501V10.5225ZM11.1001 15.4725H9.7501V10.5225H11.1001V15.4725ZM12.0001 9.62253C11.5051 9.62253 11.1001 9.21753 11.1001 8.72253C11.1001 8.22753 11.5051 7.82253 12.0001 7.82253C12.4951 7.82253 12.9001 8.22753 12.9001 8.72253C12.9001 9.21753 12.4951 9.62253 12.0001 9.62253ZM14.2501 15.4725H12.9001V10.5225H14.2501V15.4725Z" fill="#1652F0"/>
</svg>
